<svg width="20" height="20" viewBox="0 0 20 20" fill="none" xmlns="http://www.w3.org/2000/svg">
<g id="Frame">
<path id="Vector 22" d="M3.44816 5.17319C3.10333 5.51802 2.41368 6.62147 2.41368 6.89733L2.06885 7.58698V13.4491L2.41368 14.8284L8.27574 18.6215H9.31023H11.0344L16.5516 15.1732L17.5861 13.7939V6.5525V5.51802L11.0344 1.72491C10.5746 1.60997 9.58609 1.72501 9.31023 1.72501C9.03437 1.72501 5.28724 3.90882 3.44816 5.17319Z" fill="white"/>
<path id="Vector" d="M8.22978 9.49906C8.22978 9.49906 10.5198 9.97906 11.6498 9.32906C11.6498 9.32906 9.89979 10.6991 9.89979 12.5791C9.90978 12.5691 9.73978 10.2091 8.22978 9.49906ZM8.56978 19.0291C8.56978 19.0291 9.90978 19.1591 9.90978 17.4491C9.90978 17.4491 9.96978 19.1791 11.1798 18.9791C11.1798 18.9891 10.1898 19.4091 8.56978 19.0291ZM3.14978 4.74906C3.14978 4.74906 2.55979 6.02906 3.36979 6.53906C3.36979 6.53906 2.05979 6.19906 1.77979 7.26906C1.77979 7.26906 1.94979 5.64906 3.14978 4.74906ZM16.7498 4.53906C16.7498 4.53906 17.7098 5.51906 16.7698 6.12906C16.7698 6.12906 17.9198 5.76906 18.0698 6.83906C18.0698 6.83906 18.1698 5.47906 16.7498 4.53906Z" fill="#A40000"/>
<path id="Vector_2" d="M8.65992 19.059C8.54992 19.059 8.44992 19.039 8.35992 18.999L3.06992 15.929L3.03992 15.909C3.03992 15.909 3.01992 15.889 2.94992 15.859C1.94992 15.289 1.71992 14.019 1.66992 13.499V7.64903C1.66992 7.58903 1.67992 7.50903 1.68992 7.42903L1.69992 7.35903L1.71992 7.30903C2.09992 6.31903 3.21992 6.30903 3.74992 6.44903L3.71992 6.55903L3.79992 6.43903L9.29992 9.59903L9.66992 10.339C10.0799 11.059 10.2399 11.859 10.3099 12.289V17.329C10.2199 18.429 9.58992 18.819 9.21992 18.949C9.19992 18.959 8.91992 19.059 8.65992 19.059ZM3.53992 15.229L8.67992 18.209C8.91992 18.199 9.39992 18.079 9.46992 17.269V12.379C9.37992 11.759 9.05992 10.349 8.05992 9.87903L6.29992 8.79903L6.32992 8.85903L3.54992 7.24903C3.50992 7.23903 2.75992 7.06903 2.51992 7.55903C2.50992 7.60903 2.50992 7.64903 2.50992 7.67903V13.429C2.53992 13.759 2.69992 14.739 3.35992 15.119C3.42992 15.159 3.48992 15.199 3.53992 15.229Z" fill="#A40000"/>
<path id="Vector_3" d="M16.3602 4.26046C16.4902 4.34046 16.6102 4.40046 16.7202 4.47046L16.7502 4.49046L16.7802 4.52046C16.8802 4.60046 16.9902 4.70046 17.1002 4.82046C17.2202 5.05046 17.2102 5.47046 17.1902 5.78046C17.1702 6.02046 17.0602 6.37046 16.6702 6.65046L16.6502 6.66046L11.8102 9.72046C11.2902 10.0005 10.5802 10.0805 9.93022 10.0805C9.13022 10.0805 8.41023 9.95046 8.19023 9.91046L8.13023 9.90046L3.34022 7.12046C2.57022 6.54046 2.79022 5.45046 3.04022 4.90046L3.09022 4.78046L8.24023 1.52046C8.81023 1.24046 10.2802 0.680457 11.6202 1.50046C11.6902 1.55046 12.7602 2.17046 13.9502 2.86046M8.43022 9.10046C9.22023 9.24046 10.6602 9.37046 11.4102 8.98046L16.1902 5.95046C16.3302 5.84046 16.3502 5.75046 16.3602 5.70046C16.3802 5.48046 16.1702 5.18046 16.0602 5.06046C14.9702 4.43046 11.3002 2.30046 11.1702 2.22046C10.2002 1.62046 9.08022 2.04046 8.63022 2.27046L3.76022 5.35046C3.68022 5.59046 3.52022 6.18046 3.83022 6.44046L8.43022 9.10046Z" fill="#A40000"/>
<path id="Vector_4" d="M16.2402 5.93984C16.3202 5.91984 16.9902 5.71984 17.5302 6.05984C17.6702 6.14984 17.8802 6.28984 18.0002 6.53984C18.0202 6.64984 18.0802 6.74984 18.0902 6.86984V6.90984L18.0702 13.2198C17.9702 13.9098 17.6302 15.0098 16.5602 15.6698L16.4602 15.7398H16.4402L11.3202 18.9798L11.2302 18.9898C11.1502 18.9998 11.0602 19.0098 10.9802 19.0098C10.6702 19.0098 10.3902 18.9098 10.1602 18.7198C9.6802 18.3198 9.5202 17.6298 9.4702 17.2798L9.4502 12.3398H9.4802C9.6002 10.4498 11.2102 9.11984 11.3702 8.99984L11.3602 8.98984L16.2002 5.94984M10.3202 17.0398C10.3302 17.2398 10.4202 17.8498 10.7102 18.0898C10.7702 18.1398 10.8602 18.1998 11.0302 18.1898L16.2002 14.9098C17.3002 14.1598 17.2502 12.6498 17.2502 12.6398L17.2402 12.0098L17.2602 7.11984H17.2502C17.2202 6.86984 17.1102 6.79984 17.0802 6.77984C16.9102 6.66984 16.6202 6.71984 16.5202 6.73984L11.9202 9.64984C11.9002 9.65984 10.3402 10.9198 10.3402 12.5698H10.3102L10.3202 17.0398Z" fill="#A40000"/>
<path id="Vector_5" d="M8.50014 5.2593C8.50014 5.7993 9.12014 6.2393 9.89014 6.2393C10.6601 6.2393 11.2801 5.7993 11.2801 5.2593C11.2801 4.7193 10.6601 4.2793 9.89014 4.2793C9.12014 4.2793 8.50014 4.7193 8.50014 5.2593ZM12.9601 15.3893C12.9601 15.9893 12.5201 16.6993 11.9901 16.9593C11.4501 17.2293 11.0101 16.9493 11.0101 16.3493C11.0101 15.7493 11.4501 15.0393 11.9901 14.7793C12.5201 14.5093 12.9601 14.7793 12.9601 15.3893ZM14.8501 11.8693C14.8501 12.4693 14.4101 13.1793 13.8801 13.4393C13.3401 13.7093 12.9101 13.4293 12.9101 12.8293C12.9101 12.2293 13.3501 11.5193 13.8801 11.2593C14.4101 10.9893 14.8501 11.2693 14.8501 11.8693ZM16.9501 8.4593C16.9501 9.0593 16.5101 9.7693 15.9801 10.0293C15.4401 10.2993 15.0001 10.0193 15.0001 9.4193C15.0001 8.8193 15.4401 8.1093 15.9801 7.8493C16.5101 7.5793 16.9501 7.8493 16.9501 8.4593ZM5.29014 10.6093C5.29014 11.2093 4.86014 11.4293 4.34014 11.0893C3.81014 10.7593 3.39014 9.9993 3.39014 9.3993C3.39014 8.7993 3.82014 8.5793 4.34014 8.9193C4.86014 9.2493 5.29014 10.0093 5.29014 10.6093ZM8.44014 16.1793C8.44014 16.7793 8.01014 16.9993 7.49014 16.6593C6.97014 16.3193 6.54014 15.5693 6.54014 14.9693C6.54014 14.3693 6.97014 14.1493 7.49014 14.4893C8.01014 14.8193 8.44014 15.5793 8.44014 16.1793Z" fill="#EE3F4D"/>
</g>
</svg>
