<svg width="29" height="29" viewBox="0 0 29 29" fill="none" xmlns="http://www.w3.org/2000/svg">
<g id="Frame">
<path id="Vector" d="M11.9336 13.774C11.9336 13.774 15.2541 14.47 16.8926 13.5275C16.8926 13.5275 14.3551 15.514 14.3551 18.24C14.3696 18.2255 14.1231 14.8035 11.9336 13.774ZM12.4266 27.5925C12.4266 27.5925 14.3696 27.781 14.3696 25.3015C14.3696 25.3015 14.4566 27.81 16.2111 27.52C16.2111 27.5345 14.7756 28.1435 12.4266 27.5925ZM4.56755 6.88653C4.56755 6.88653 3.71205 8.74253 4.88655 9.48203C4.88655 9.48203 2.98705 8.98903 2.58105 10.5405C2.58105 10.5405 2.82755 8.19153 4.56755 6.88653ZM24.2876 6.58203C24.2876 6.58203 25.6796 8.00303 24.3166 8.88753C24.3166 8.88753 25.9841 8.36553 26.2016 9.91703C26.2016 9.91703 26.3466 7.94503 24.2876 6.58203Z" fill="#343399"/>
<path id="Vector_2" d="M12.5569 27.6374C12.3974 27.6374 12.2524 27.6084 12.1219 27.5504L4.45139 23.0989L4.40789 23.0699C4.40789 23.0699 4.37889 23.0409 4.27739 22.9974C2.82739 22.1709 2.49389 20.3294 2.42139 19.5754V11.0929C2.42139 11.0059 2.43589 10.8899 2.45039 10.7739L2.46489 10.6724L2.49389 10.5999C3.04489 9.16445 4.66889 9.14995 5.43739 9.35295L5.39389 9.51245L5.50989 9.33845L13.4849 13.9204L14.0214 14.9934C14.6159 16.0374 14.8479 17.1974 14.9494 17.8209V25.1289C14.8189 26.7239 13.9054 27.2894 13.3689 27.4779C13.3399 27.4924 12.9339 27.6374 12.5569 27.6374ZM5.13289 22.0839L12.5859 26.4049C12.9339 26.3904 13.6299 26.2164 13.7314 25.0419V17.9514C13.6009 17.0524 13.1369 15.0079 11.6869 14.3264L9.13489 12.7604L9.17839 12.8474L5.14739 10.5129C5.08939 10.4984 4.00189 10.2519 3.65389 10.9624C3.63939 11.0349 3.63939 11.0929 3.63939 11.1364V19.4739C3.68289 19.9524 3.91489 21.3734 4.87189 21.9244C4.97339 21.9824 5.06039 22.0404 5.13289 22.0839Z" fill="#343399"/>
<path id="Vector_3" d="M23.7218 6.17756C23.9103 6.29356 24.0843 6.38056 24.2438 6.48206L24.2873 6.51106L24.3308 6.55456C24.4758 6.67056 24.6353 6.81556 24.7948 6.98956C24.9688 7.32306 24.9543 7.93206 24.9253 8.38156C24.8963 8.72956 24.7368 9.23706 24.1713 9.64306L24.1423 9.65757L17.1243 14.0946C16.3703 14.5006 15.3408 14.6166 14.3983 14.6166C13.2383 14.6166 12.1943 14.4281 11.8753 14.3701L11.7883 14.3556L4.84281 10.3246C3.72631 9.48356 4.04531 7.90306 4.40781 7.10556L4.48031 6.93156L11.9478 2.20456C12.7743 1.79856 14.9058 0.986565 16.8488 2.17556C16.9503 2.24806 18.5018 3.14706 20.2273 4.14756M12.2233 13.1956C13.3688 13.3986 15.4568 13.5871 16.5443 13.0216L23.4753 8.62807C23.6783 8.46856 23.7073 8.33806 23.7218 8.26556C23.7508 7.94656 23.4463 7.51156 23.2868 7.33756C21.7063 6.42406 16.3848 3.33556 16.1963 3.21956C14.7898 2.34956 13.1658 2.95856 12.5133 3.29206L5.45181 7.75806C5.33581 8.10606 5.10381 8.96156 5.55331 9.33856L12.2233 13.1956Z" fill="#343399"/>
<path id="Vector_4" d="M23.5481 8.61297C23.6641 8.58397 24.6356 8.29397 25.4186 8.78697C25.6216 8.91747 25.9261 9.12047 26.1001 9.48297C26.1291 9.64247 26.2161 9.78747 26.2306 9.96147V10.0195L26.2016 19.169C26.0566 20.1695 25.5636 21.7645 24.0121 22.7215L23.8671 22.823H23.8381L16.4141 27.521L16.2836 27.5355C16.1676 27.55 16.0371 27.5645 15.9211 27.5645C15.4716 27.5645 15.0656 27.4195 14.7321 27.144C14.0361 26.564 13.8041 25.5635 13.7316 25.056L13.7026 17.893H13.7461C13.9201 15.1525 16.2546 13.224 16.4866 13.05L16.4721 13.0355L23.4901 8.62747M14.9641 24.708C14.9786 24.998 15.1091 25.8825 15.5296 26.2305C15.6166 26.303 15.7471 26.39 15.9936 26.3755L23.4901 21.6195C25.0851 20.532 25.0126 18.3425 25.0126 18.328L24.9981 17.4145L25.0271 10.324H25.0126C24.9691 9.96147 24.8096 9.85997 24.7661 9.83097C24.5196 9.67147 24.0991 9.74397 23.9541 9.77297L17.2841 13.9925C17.2551 14.007 14.9931 15.834 14.9931 18.2265H14.9496L14.9641 24.708Z" fill="#343399"/>
<path id="Vector_5" d="M12.325 7.62608C12.325 8.40908 13.224 9.04708 14.3405 9.04708C15.457 9.04708 16.356 8.40908 16.356 7.62608C16.356 6.84308 15.457 6.20508 14.3405 6.20508C13.224 6.20508 12.325 6.84308 12.325 7.62608ZM18.792 22.3146C18.792 23.1846 18.154 24.2141 17.3855 24.5911C16.6025 24.9826 15.9645 24.5766 15.9645 23.7066C15.9645 22.8366 16.6025 21.8071 17.3855 21.4301C18.154 21.0386 18.792 21.4301 18.792 22.3146ZM21.5325 17.2106C21.5325 18.0806 20.8945 19.1101 20.126 19.4871C19.343 19.8786 18.7195 19.4726 18.7195 18.6026C18.7195 17.7326 19.3575 16.7031 20.126 16.3261C20.8945 15.9346 21.5325 16.3406 21.5325 17.2106ZM24.5775 12.2661C24.5775 13.1361 23.9395 14.1656 23.171 14.5426C22.388 14.9341 21.75 14.5281 21.75 13.6581C21.75 12.7881 22.388 11.7586 23.171 11.3816C23.9395 10.9901 24.5775 11.3816 24.5775 12.2661ZM7.67053 15.3836C7.67053 16.2536 7.04703 16.5726 6.29303 16.0796C5.52453 15.6011 4.91553 14.4991 4.91553 13.6291C4.91553 12.7591 5.53903 12.4401 6.29303 12.9331C7.04703 13.4116 7.67053 14.5136 7.67053 15.3836ZM12.238 23.4601C12.238 24.3301 11.6145 24.6491 10.8605 24.1561C10.1065 23.6631 9.48303 22.5756 9.48303 21.7056C9.48303 20.8356 10.1065 20.5166 10.8605 21.0096C11.6145 21.4881 12.238 22.5901 12.238 23.4601Z" fill="#F59D0D"/>
</g>
</svg>
